<svg xmlns="http://www.w3.org/2000/svg" width="32" height="32" viewBox="0 0 32 32">
  <rect width="32" height="32" rx="6" fill="#1a1a2e"/>
  <g transform="translate(3, 6)">
    <!-- Truck bed -->
    <rect x="0" y="10" width="16" height="8" rx="1.5" fill="#f5b800"/>
    <!-- Cab -->
    <path d="M16 10 L16 18 L24 18 L24 13 L20 10 Z" fill="#f5b800"/>
    <!-- Windshield -->
    <path d="M17 11 L19.5 11 L22.5 13.5 L22.5 15 L17 15 Z" fill="#1a1a2e" opacity="0.6"/>
    <!-- Hook arm -->
    <line x1="4" y1="10" x2="8" y2="3" stroke="#f5b800" stroke-width="2" stroke-linecap="round"/>
    <line x1="8" y1="3" x2="12" y2="3" stroke="#f5b800" stroke-width="2" stroke-linecap="round"/>
    <!-- Hook -->
    <path d="M12 3 L12 6 Q12 8 10 8" stroke="#f5b800" stroke-width="1.5" fill="none" stroke-linecap="round"/>
    <!-- Wheels -->
    <circle cx="6" cy="19" r="2.5" fill="#1a1a2e"/>
    <circle cx="6" cy="19" r="1" fill="#f5b800"/>
    <circle cx="21" cy="19" r="2.5" fill="#1a1a2e"/>
    <circle cx="21" cy="19" r="1" fill="#f5b800"/>
  </g>
</svg>
